<svg width="24" height="24" viewBox="0 0 24 24" fill="none" xmlns="http://www.w3.org/2000/svg">
<path d="M21.6702 6.94942C21.0302 4.77942 19.2202 2.96942 17.0502 2.32942C15.4002 1.84942 14.2602 1.88942 13.4702 2.47942C12.5202 3.18942 12.4102 4.46942 12.4102 5.37942V7.86942C12.4102 10.3294 13.5302 11.5794 15.7302 11.5794H18.6002C19.5002 11.5794 20.7902 11.4694 21.5002 10.5194C22.1102 9.73942 22.1602 8.59942 21.6702 6.94942Z" fill="#292D32"/>
<path d="M18.9094 13.3611C18.6494 13.0611 18.2694 12.8911 17.8794 12.8911H14.2994C12.5394 12.8911 11.1094 11.4611 11.1094 9.70113V6.12113C11.1094 5.73113 10.9394 5.35113 10.6394 5.09113C10.3494 4.83113 9.94941 4.71113 9.56941 4.76113C7.21941 5.06113 5.05941 6.35113 3.64941 8.29113C2.22941 10.2411 1.70941 12.6211 2.15941 15.0011C2.80941 18.4411 5.55941 21.1911 9.00941 21.8411C9.55941 21.9511 10.1094 22.0011 10.6594 22.0011C12.4694 22.0011 14.2194 21.4411 15.7094 20.3511C17.6494 18.9411 18.9394 16.7811 19.2394 14.4311C19.2894 14.0411 19.1694 13.6511 18.9094 13.3611Z" fill="#292D32"/>
</svg>
