<svg width="24" height="24" viewBox="0 0 24 24" fill="none" xmlns="http://www.w3.org/2000/svg">
<path d="M15.78 2H8.22C4.44 2 3.5 3.01 3.5 7.04V18.3C3.5 20.96 4.96 21.59 6.73 19.69L6.74 19.68C7.56 18.81 8.81 18.88 9.52 19.83L10.53 21.18C11.34 22.25 12.65 22.25 13.46 21.18L14.47 19.83C15.19 18.87 16.44 18.8 17.26 19.68C19.04 21.58 20.49 20.95 20.49 18.29V7.04C20.5 3.01 19.56 2 15.78 2ZM7.78 12C7.23 12 6.78 11.55 6.78 11C6.78 10.45 7.23 10 7.78 10C8.33 10 8.78 10.45 8.78 11C8.78 11.55 8.33 12 7.78 12ZM7.78 8C7.23 8 6.78 7.55 6.78 7C6.78 6.45 7.23 6 7.78 6C8.33 6 8.78 6.45 8.78 7C8.78 7.55 8.33 8 7.78 8ZM16.23 11.75H10.73C10.32 11.75 9.98 11.41 9.98 11C9.98 10.59 10.32 10.25 10.73 10.25H16.23C16.64 10.25 16.98 10.59 16.98 11C16.98 11.41 16.64 11.75 16.23 11.75ZM16.23 7.75H10.73C10.32 7.75 9.98 7.41 9.98 7C9.98 6.59 10.32 6.25 10.73 6.25H16.23C16.64 6.25 16.98 6.59 16.98 7C16.98 7.41 16.64 7.75 16.23 7.75Z" fill="#292D32"/>
</svg>
