<svg width="24" height="24" viewBox="0 0 24 24" fill="none" xmlns="http://www.w3.org/2000/svg">
<path d="M16.19 2H7.81C4.17 2 2 4.17 2 7.81V16.18C2 19.83 4.17 22 7.81 22H16.18C19.82 22 21.99 19.83 21.99 16.19V7.81C22 4.17 19.83 2 16.19 2ZM8.5 6.38C9.53 6.38 10.38 7.22 10.38 8.26C10.38 9.3 9.54 10.14 8.5 10.14C7.46 10.14 6.62 9.28 6.62 8.25C6.62 7.22 7.47 6.38 8.5 6.38ZM12 19.08C9.31 19.08 7.12 16.89 7.12 14.2C7.12 13.5 7.69 12.92 8.39 12.92H15.59C16.29 12.92 16.86 13.49 16.86 14.2C16.88 16.89 14.69 19.08 12 19.08ZM15.5 10.12C14.47 10.12 13.62 9.28 13.62 8.24C13.62 7.2 14.46 6.36 15.5 6.36C16.54 6.36 17.38 7.2 17.38 8.24C17.38 9.28 16.53 10.12 15.5 10.12Z" fill="#292D32"/>
</svg>
