<svg width="24" height="24" viewBox="0 0 24 24" fill="none" xmlns="http://www.w3.org/2000/svg">
<path d="M16.9997 3.75H10.2797C8.86969 3.75 7.52969 4.34 6.57969 5.39L3.04969 9.27C1.63969 10.82 1.63969 13.18 3.04969 14.73L6.57969 18.61C7.52969 19.65 8.86969 20.25 10.2797 20.25H16.9997C19.7597 20.25 21.9997 18.01 21.9997 15.25V8.75C21.9997 5.99 19.7597 3.75 16.9997 3.75ZM16.5297 13.94C16.8197 14.23 16.8197 14.71 16.5297 15C16.3797 15.15 16.1897 15.22 15.9997 15.22C15.8097 15.22 15.6197 15.15 15.4697 15L13.5297 13.06L11.5897 15C11.4397 15.15 11.2497 15.22 11.0597 15.22C10.8697 15.22 10.6797 15.15 10.5297 15C10.2397 14.71 10.2397 14.23 10.5297 13.94L12.4697 12L10.5297 10.06C10.2397 9.77 10.2397 9.29 10.5297 9C10.8197 8.71 11.2997 8.71 11.5897 9L13.5297 10.94L15.4697 9C15.7597 8.71 16.2397 8.71 16.5297 9C16.8197 9.29 16.8197 9.77 16.5297 10.06L14.5897 12L16.5297 13.94Z" fill="#292D32"/>
</svg>
