<svg width="24px" height="24px" viewBox="0 0 24 24" version="1.1" xmlns="http://www.w3.org/2000/svg" xmlns:xlink="http://www.w3.org/1999/xlink">
    <g id="Linear" stroke="none" stroke-width="1" fill="none" fill-rule="evenodd">
        <g id="Essetional" transform="translate(-556.000000, -508.000000)">
            <g id="filter" transform="translate(556.000000, 508.000000)">
                <path d="M18.6000252,2.09997559 C19.7000252,2.09997559 20.6000252,2.99997556 20.6000252,4.09997559 L20.6000252,6.29997587 C20.6000252,7.09997559 20.1000252,8.09997559 19.6000252,8.59997559 L15.300024,12.3999748 C14.700024,12.8999748 14.300024,13.899976 14.300024,14.699976 L14.300024,18.9999752 C14.300024,19.5999756 13.9000244,20.399976 13.4000244,20.699976 L12.0000248,21.5999756 C10.7000248,22.3999756 8.90002441,21.4999748 8.90002441,19.8999748 L8.90002441,14.5999756 C8.90002441,13.8999756 8.50002471,12.9999752 8.1000247,12.4999752 L4.30002451,8.49997568 C3.80002451,7.99997568 3.40002441,7.09997559 3.40002441,6.49997568 L3.40002441,4.19997549 C3.40002441,2.99997544 4.30002439,2.09997559 5.40002441,2.09997559 L18.6000252,2.09997559 Z" id="Vector" stroke="#292D32" stroke-width="1.5" stroke-linecap="round" stroke-linejoin="round" stroke-dasharray="0,0" fill-rule="nonzero"></path>
                <path d="M24,0 L24,24 L0,24 L0,0 L24,0 Z" id="Vector" opacity="0"></path>
            </g>
        </g>
    </g>
</svg>